<?xml version="1.0" encoding="UTF-8" ?>
<!DOCTYPE svg PUBLIC "-//W3C//DTD SVG 1.1//EN" "http://www.w3.org/Graphics/SVG/1.1/DTD/svg11.dtd">
<svg width="529pt" height="85pt" viewBox="0 0 529 85" version="1.1" xmlns="http://www.w3.org/2000/svg">
<g id="#ffffffff">
</g>
<g id="#00c2cbff">
<path fill="#00c2cb" opacity="1.00" d=" M 283.15 11.01 C 288.16 11.00 293.18 10.96 298.20 11.06 C 298.17 23.70 298.23 36.33 298.17 48.96 C 298.18 50.77 298.15 52.60 298.59 54.37 C 299.58 54.96 300.64 55.46 301.74 55.85 C 301.80 60.03 301.79 64.22 301.71 68.40 C 297.35 68.83 292.41 70.04 288.45 67.55 C 286.54 66.49 286.10 64.23 285.43 62.35 C 280.00 71.02 266.60 70.95 259.55 64.35 C 250.19 55.51 250.40 38.51 259.97 29.89 C 266.51 23.91 277.96 24.74 283.19 32.07 C 283.11 25.05 283.17 18.03 283.15 11.01 M 272.38 39.48 C 267.22 42.98 266.61 52.26 272.36 55.49 C 276.26 57.55 280.87 55.76 283.30 52.35 C 283.04 48.78 284.10 44.58 281.39 41.70 C 279.41 38.90 275.41 37.77 272.38 39.48 Z" />
<path fill="#00c2cb" opacity="1.00" d=" M 12.37 23.39 C 19.42 12.52 34.97 8.65 46.33 14.80 C 50.43 16.89 53.45 20.50 55.78 24.39 C 51.88 27.19 47.91 29.90 43.98 32.65 C 42.39 29.86 40.24 27.04 36.88 26.40 C 31.40 24.56 25.51 28.55 24.05 33.88 C 22.01 40.53 23.17 49.64 30.04 53.04 C 35.23 55.74 41.56 52.57 43.76 47.46 C 47.86 49.89 52.00 52.27 56.15 54.62 C 50.48 68.14 30.92 72.16 19.56 63.45 C 7.19 54.69 3.40 35.84 12.37 23.39 Z" />
<path fill="#00c2cb" opacity="1.00" d=" M 372.23 12.01 C 377.41 11.99 382.59 11.99 387.77 12.01 C 387.76 21.34 387.78 30.67 387.75 40.00 C 387.76 44.28 388.48 49.14 391.94 52.07 C 395.38 55.11 401.12 54.46 403.97 50.92 C 406.88 47.33 407.12 42.41 407.17 37.98 C 407.05 29.36 407.32 20.73 407.00 12.11 C 412.16 11.92 417.31 12.02 422.47 12.01 C 422.46 22.00 422.48 32.00 422.47 41.99 C 422.38 49.87 419.73 58.32 413.20 63.20 C 407.15 67.98 398.97 68.74 391.59 67.63 C 385.44 66.51 379.69 62.88 376.45 57.49 C 373.25 52.29 372.27 46.06 372.24 40.04 C 372.20 30.70 372.25 21.35 372.23 12.01 Z" />
<path fill="#00c2cb" opacity="1.00" d=" M 60.02 31.21 C 65.99 27.50 73.01 25.56 80.04 25.97 C 86.62 25.97 94.07 28.32 97.31 34.52 C 100.56 40.64 98.68 47.75 99.64 54.30 C 100.67 54.79 101.70 55.27 102.76 55.71 C 102.77 59.88 102.74 64.05 102.83 68.23 C 98.66 68.96 93.95 69.92 90.01 67.85 C 87.73 66.76 87.17 64.14 86.37 61.99 C 81.47 69.08 70.86 71.39 63.70 66.41 C 57.44 62.44 56.27 52.74 61.46 47.43 C 67.26 41.28 76.86 40.88 84.49 43.32 C 84.03 40.91 83.91 37.66 81.11 36.72 C 75.20 34.40 69.18 37.84 64.31 40.99 C 62.87 37.73 61.44 34.47 60.02 31.21 M 73.70 51.66 C 71.90 52.85 71.92 56.13 73.98 57.03 C 77.38 59.28 82.07 57.37 84.37 54.38 C 84.33 53.54 84.24 51.87 84.20 51.03 C 80.79 50.12 76.67 49.10 73.70 51.66 Z" />
<path fill="#00c2cb" opacity="1.00" d=" M 114.94 27.80 C 123.97 23.83 134.15 26.84 142.77 30.48 C 140.78 33.67 138.87 36.90 136.97 40.14 C 132.26 38.28 127.37 35.22 122.13 36.27 C 120.40 36.36 119.50 39.01 121.26 39.72 C 127.55 42.56 135.10 42.74 140.56 47.38 C 144.26 50.39 144.45 55.86 143.00 60.06 C 140.84 65.65 134.70 68.51 129.03 68.93 C 120.54 69.47 111.93 67.78 104.15 64.40 C 106.09 60.98 108.06 57.57 109.95 54.12 C 114.99 56.64 120.38 59.07 126.12 59.00 C 127.77 59.20 128.79 57.82 129.94 56.94 C 123.45 51.74 113.16 53.26 107.82 46.21 C 103.86 39.58 108.09 30.55 114.94 27.80 Z" />
<path fill="#00c2cb" opacity="1.00" d=" M 162.47 26.58 C 169.80 25.06 178.09 26.01 183.99 30.96 C 193.87 38.94 193.88 56.02 184.02 64.02 C 173.66 72.44 155.38 70.50 148.79 58.25 C 145.19 51.48 145.28 42.82 149.12 36.16 C 151.94 31.24 157.02 27.90 162.47 26.58 M 165.42 39.45 C 160.90 42.41 160.53 49.36 163.35 53.62 C 165.92 57.60 172.82 57.11 174.77 52.78 C 176.25 49.51 176.26 45.47 174.76 42.21 C 173.19 38.78 168.60 37.80 165.42 39.45 Z" />
<path fill="#00c2cb" opacity="1.00" d=" M 196.71 34.63 C 199.47 28.99 205.92 26.03 211.99 25.98 C 218.87 25.64 225.52 27.86 231.78 30.49 C 229.78 33.67 227.87 36.90 225.97 40.14 C 221.26 38.27 216.37 35.22 211.12 36.27 C 209.52 36.46 209.44 38.11 209.19 39.35 C 215.85 42.40 223.81 42.58 229.61 47.42 C 233.26 50.43 233.43 55.85 232.01 60.02 C 229.87 65.63 223.72 68.50 218.05 68.93 C 209.55 69.48 200.96 67.76 193.14 64.43 C 195.08 60.99 197.05 57.58 198.96 54.13 C 203.98 56.63 209.34 59.04 215.06 59.01 C 216.67 59.18 217.76 57.87 218.94 57.03 C 213.21 52.20 204.62 53.15 198.80 48.30 C 194.58 45.19 194.57 38.97 196.71 34.63 Z" />
<path fill="#00c2cb" opacity="1.00" d=" M 310.48 32.57 C 320.37 22.37 340.41 23.78 347.40 36.66 C 350.20 41.27 350.01 46.80 349.75 51.98 C 340.02 52.09 330.28 51.85 320.54 52.11 C 321.86 59.26 332.03 59.71 335.52 54.02 C 339.79 55.04 343.99 56.31 348.21 57.50 C 344.40 64.41 336.94 69.09 328.98 69.02 C 321.59 69.58 313.68 66.95 309.09 60.92 C 302.81 52.72 303.58 40.17 310.48 32.57 M 325.19 37.29 C 322.46 37.92 321.18 40.54 320.32 42.94 C 324.89 43.03 329.47 43.05 334.05 42.92 C 333.33 38.94 329.19 35.87 325.19 37.29 Z" />
<path fill="#00c2cb" opacity="1.00" d=" M 437.03 27.99 C 446.11 23.75 456.52 26.77 465.24 30.49 C 463.27 33.72 461.39 37.02 459.28 40.17 C 455.05 38.20 450.66 35.89 445.88 36.00 C 444.37 36.00 443.34 37.30 442.12 37.96 C 444.15 40.84 447.84 41.14 450.95 42.06 C 455.33 43.28 459.93 44.60 463.41 47.68 C 467.73 51.81 467.05 59.16 463.45 63.53 C 460.35 67.00 455.63 68.67 451.08 68.96 C 442.76 69.42 434.40 67.69 426.74 64.48 C 428.52 60.97 430.53 57.57 432.49 54.15 C 437.90 56.75 443.82 59.64 449.99 58.79 C 451.88 58.80 452.38 56.12 450.64 55.46 C 444.05 52.36 435.58 52.40 430.53 46.53 C 426.26 40.08 430.32 30.92 437.03 27.99 Z" />
<path fill="#00c2cb" opacity="1.00" d=" M 485.41 26.48 C 492.51 25.15 500.47 26.05 506.22 30.75 C 516.23 38.54 516.47 55.62 506.79 63.77 C 496.26 72.76 476.89 70.43 470.80 57.28 C 467.48 50.29 468.01 41.64 472.24 35.14 C 475.23 30.63 480.18 27.65 485.41 26.48 M 488.24 39.26 C 483.65 41.83 483.28 48.37 485.28 52.72 C 487.19 57.11 494.08 57.59 496.71 53.66 C 498.97 50.26 498.96 45.50 497.10 41.93 C 495.46 38.79 491.33 37.97 488.24 39.26 Z" />
</g>
</svg>
