<?xml version="1.0" encoding="UTF-8" ?>
<!DOCTYPE svg PUBLIC "-//W3C//DTD SVG 1.1//EN" "http://www.w3.org/Graphics/SVG/1.1/DTD/svg11.dtd">
<svg width="518pt" height="167pt" viewBox="0 0 518 167" version="1.1" xmlns="http://www.w3.org/2000/svg">
<g id="#ffffffff">
</g>
<g id="#00c2cbff">
<path fill="#00c2cb" opacity="1.00" d=" M 68.35 12.03 C 73.39 11.98 78.43 12.00 83.47 12.00 C 83.46 16.22 83.45 20.44 83.53 24.66 C 78.48 24.81 73.42 24.74 68.37 24.74 C 68.36 20.50 68.37 16.26 68.35 12.03 Z" />
<path fill="#00c2cb" opacity="1.00" d=" M 433.53 12.00 C 438.57 12.00 443.60 11.99 448.64 12.01 C 448.72 26.01 448.46 40.03 448.76 54.02 C 448.62 55.96 451.09 56.14 452.32 56.97 C 452.36 61.08 452.34 65.19 452.35 69.30 C 448.08 69.87 443.32 70.95 439.33 68.78 C 437.29 67.85 436.70 65.56 435.93 63.68 C 429.74 72.38 415.59 71.93 408.86 64.12 C 402.62 57.26 401.79 46.67 405.20 38.30 C 407.68 31.93 413.92 26.77 420.97 26.96 C 425.96 26.61 430.78 29.16 433.60 33.23 C 433.45 26.16 433.56 19.08 433.53 12.00 M 423.31 40.22 C 417.56 43.53 416.95 53.65 423.25 56.70 C 427.03 58.39 431.11 56.66 433.63 53.68 C 433.61 50.92 433.87 48.13 433.44 45.39 C 432.08 41.41 427.46 38.33 423.31 40.22 Z" />
<path fill="#00c2cb" opacity="1.00" d=" M 13.65 13.03 C 21.43 13.00 29.22 12.97 37.01 13.01 C 46.16 13.10 55.42 18.04 59.67 26.30 C 65.20 37.16 64.34 51.71 55.94 60.89 C 50.81 66.23 43.35 69.08 35.99 69.01 C 28.54 69.00 21.09 69.02 13.65 68.97 C 13.65 50.32 13.65 31.68 13.65 13.03 M 29.19 26.00 C 29.19 36.00 29.19 46.00 29.19 56.00 C 33.24 55.95 37.67 56.57 41.26 54.26 C 45.81 51.59 47.40 45.92 47.40 40.96 C 47.45 36.00 45.81 30.40 41.28 27.74 C 37.67 25.44 33.25 26.05 29.19 26.00 Z" />
<path fill="#00c2cb" opacity="1.00" d=" M 90.18 32.10 C 97.95 27.43 107.40 25.78 116.28 27.67 C 121.08 28.73 125.82 31.55 127.80 36.25 C 130.67 42.21 128.73 48.97 129.80 55.24 C 130.79 55.78 131.80 56.28 132.84 56.72 C 132.85 60.94 132.85 65.16 132.85 69.37 C 128.47 69.86 123.43 71.10 119.51 68.42 C 117.65 67.29 117.38 64.97 116.72 63.09 C 111.84 69.32 102.77 72.17 95.54 68.40 C 88.64 65.32 86.03 55.70 90.64 49.66 C 96.05 42.36 106.59 41.74 114.64 44.30 C 114.15 41.93 114.08 38.71 111.35 37.76 C 105.42 35.36 99.36 38.86 94.45 41.99 C 93.02 38.70 91.59 35.40 90.18 32.10 M 102.74 54.00 C 101.39 58.36 107.23 60.08 110.37 58.43 C 113.43 57.81 114.83 54.98 114.54 52.05 C 110.64 50.93 105.32 49.94 102.74 54.00 Z" />
<path fill="#00c2cb" opacity="1.00" d=" M 137.43 38.38 C 140.37 31.10 148.24 26.18 156.09 26.99 C 160.80 26.98 164.96 29.71 167.75 33.34 C 167.69 31.57 167.65 29.80 167.61 28.03 C 172.00 27.99 176.39 27.99 180.77 28.01 C 180.75 40.68 180.79 53.34 180.76 66.01 C 180.87 72.41 177.23 78.49 171.87 81.87 C 160.74 88.47 144.97 87.60 135.54 78.31 C 138.18 75.67 140.81 73.01 143.51 70.43 C 148.61 74.05 155.63 76.83 161.59 73.53 C 165.33 71.53 165.85 66.98 165.83 63.18 C 160.07 71.34 146.85 70.73 140.71 63.35 C 134.87 56.60 134.10 46.44 137.43 38.38 M 155.31 40.32 C 149.72 43.34 149.16 52.92 154.97 56.00 C 158.48 58.17 163.23 56.65 165.39 53.31 C 165.74 49.68 166.65 45.16 163.74 42.32 C 161.76 39.89 158.16 38.93 155.31 40.32 Z" />
<path fill="#00c2cb" opacity="1.00" d=" M 201.80 34.91 C 204.74 29.79 210.26 26.15 216.34 26.92 C 216.35 31.22 216.34 35.52 216.36 39.81 C 211.94 40.47 206.24 40.24 203.32 44.23 C 202.99 52.45 203.30 60.71 203.20 68.94 C 198.18 69.03 193.16 69.00 188.15 68.99 C 188.15 55.33 188.15 41.67 188.15 28.00 C 192.72 28.00 197.28 28.00 201.86 28.00 C 201.85 30.30 201.84 32.61 201.80 34.91 Z" />
<path fill="#00c2cb" opacity="1.00" d=" M 220.18 32.09 C 227.94 27.45 237.36 25.78 246.22 27.65 C 251.05 28.71 255.84 31.55 257.82 36.29 C 260.65 42.23 258.75 48.97 259.79 55.22 C 260.78 55.77 261.80 56.28 262.84 56.73 C 262.85 60.94 262.85 65.16 262.85 69.37 C 258.49 69.86 253.48 71.08 249.56 68.46 C 247.68 67.32 247.38 64.99 246.72 63.09 C 241.84 69.32 232.78 72.17 225.55 68.40 C 218.64 65.33 216.03 55.69 220.65 49.64 C 226.07 42.36 236.60 41.75 244.64 44.30 C 244.14 41.93 244.08 38.74 241.37 37.77 C 235.42 35.34 229.37 38.87 224.44 41.98 C 223.01 38.69 221.59 35.39 220.18 32.09 M 234.94 51.95 C 233.01 52.79 232.01 54.96 232.86 56.94 C 236.52 61.35 245.71 58.23 244.56 52.06 C 241.43 51.38 237.93 50.16 234.94 51.95 Z" />
<path fill="#00c2cb" opacity="1.00" d=" M 281.12 33.69 C 285.46 27.70 293.63 25.79 300.56 27.51 C 303.72 28.39 305.90 30.96 307.27 33.82 C 310.92 28.98 317.03 26.38 323.05 26.99 C 327.16 26.93 330.94 29.67 332.56 33.38 C 333.80 36.05 333.85 39.05 333.87 41.94 C 333.84 50.95 333.85 59.97 333.85 68.99 C 328.84 69.00 323.82 69.03 318.80 68.94 C 318.80 61.30 318.82 53.65 318.82 46.00 C 318.96 43.76 318.37 41.04 315.89 40.37 C 312.25 39.72 308.66 43.60 308.39 47.13 C 308.25 54.41 308.40 61.69 308.35 68.97 C 303.31 69.02 298.27 69.00 293.23 68.99 C 293.18 60.97 293.32 52.94 293.19 44.91 C 293.34 42.52 291.54 40.22 289.08 40.11 C 285.59 40.98 282.48 44.31 282.63 48.03 C 282.60 55.02 282.65 62.00 282.65 68.98 C 277.61 69.01 272.57 69.00 267.53 69.00 C 267.53 55.33 267.53 41.67 267.53 28.00 C 272.09 28.00 276.66 27.97 281.22 28.06 C 281.19 29.93 281.16 31.81 281.12 33.69 Z" />
<path fill="#00c2cb" opacity="1.00" d=" M 340.48 32.20 C 348.58 27.16 358.73 25.59 367.95 28.02 C 373.23 29.37 377.83 33.44 379.10 38.84 C 380.27 44.20 379.59 49.73 379.80 55.17 C 380.98 55.68 382.16 56.20 383.35 56.71 C 383.34 60.91 383.35 65.11 383.35 69.31 C 379.28 69.85 374.83 70.84 370.93 69.07 C 368.46 68.06 367.67 65.37 366.92 63.06 C 361.70 70.35 350.39 72.58 343.32 66.73 C 337.86 62.52 337.02 53.79 341.73 48.71 C 347.42 42.34 357.16 41.84 364.85 44.29 C 364.57 41.77 364.30 38.52 361.41 37.64 C 355.56 35.52 349.61 38.80 344.87 42.03 C 343.39 38.76 341.94 35.47 340.48 32.20 M 355.05 52.07 C 353.18 52.83 352.77 55.01 353.19 56.79 C 356.58 61.48 366.11 58.25 364.84 52.08 C 361.66 51.31 358.06 50.15 355.05 52.07 Z" />
<path fill="#00c2cb" opacity="1.00" d=" M 458.68 36.64 C 466.74 23.75 488.40 23.58 496.93 36.06 C 500.42 40.95 500.87 47.16 500.33 52.96 C 490.59 53.08 480.85 52.90 471.12 53.06 C 471.83 55.09 472.62 57.44 474.90 58.16 C 478.83 60.22 483.57 58.33 486.10 54.98 C 490.34 56.11 494.56 57.31 498.77 58.53 C 495.60 63.60 490.89 67.97 484.91 69.29 C 477.02 71.09 467.85 70.05 461.77 64.28 C 454.24 57.38 453.43 45.12 458.68 36.64 M 470.82 43.91 C 475.42 44.05 480.02 44.03 484.62 43.94 C 483.77 40.45 480.68 37.41 476.87 38.02 C 473.65 38.27 471.71 41.09 470.82 43.91 Z" />
<path fill="#00c2cb" opacity="1.00" d=" M 68.35 28.02 C 73.39 27.99 78.43 28.00 83.47 28.00 C 83.47 41.67 83.47 55.33 83.47 69.00 C 78.43 69.00 73.39 69.01 68.36 68.99 C 68.36 55.33 68.38 41.68 68.35 28.02 Z" />
<path fill="#00c2cb" opacity="1.00" d=" M 181.65 93.03 C 186.69 92.98 191.73 92.99 196.77 93.01 C 196.75 106.01 196.79 119.02 196.75 132.02 C 196.83 133.84 196.66 136.27 198.42 137.40 C 200.37 138.73 202.65 137.41 204.67 136.97 C 205.28 140.72 206.09 144.45 206.48 148.24 C 204.10 149.94 200.95 150.34 198.09 150.82 C 193.83 151.26 188.99 151.37 185.50 148.48 C 182.38 146.02 181.55 141.80 181.63 138.04 C 181.67 123.04 181.65 108.03 181.65 93.03 Z" />
<path fill="#00c2cb" opacity="1.00" d=" M 133.24 106.32 C 138.05 98.66 146.90 93.51 156.04 93.96 C 164.75 93.63 173.36 98.64 177.17 106.52 C 173.25 109.22 169.40 112.02 165.38 114.59 C 163.89 111.88 161.86 109.15 158.65 108.47 C 153.45 106.61 147.57 109.99 145.86 115.07 C 143.26 121.77 144.47 131.12 151.23 134.89 C 156.40 137.79 163.04 134.76 165.23 129.50 C 169.45 131.88 173.62 134.34 177.82 136.75 C 171.73 149.88 152.92 154.15 141.39 145.69 C 129.10 137.26 124.99 118.92 133.24 106.32 Z" />
<path fill="#00c2cb" opacity="1.00" d=" M 209.76 113.11 C 217.62 108.28 227.33 106.73 236.31 108.80 C 240.99 109.90 245.45 112.87 247.39 117.40 C 250.06 123.46 248.05 130.22 249.30 136.55 C 250.36 136.90 251.42 137.25 252.49 137.61 C 252.46 141.84 252.47 146.08 252.47 150.32 C 248.37 150.85 243.85 151.88 239.95 150.00 C 237.56 148.95 236.82 146.32 236.10 144.06 C 230.95 151.16 220.09 153.52 212.94 148.09 C 207.20 144.04 206.05 135.10 210.78 129.85 C 216.45 123.32 226.29 122.85 234.05 125.29 C 233.64 122.96 233.65 119.84 231.00 118.83 C 225.08 116.31 218.87 119.77 214.00 123.01 C 212.52 119.74 211.09 116.45 209.76 113.11 M 224.14 133.11 C 221.76 134.12 221.32 138.01 223.78 139.17 C 227.97 141.56 235.05 138.59 234.01 133.08 C 230.80 132.31 227.15 131.14 224.14 133.11 Z" />
<path fill="#00c2cb" opacity="1.00" d=" M 257.70 116.64 C 260.47 110.99 266.92 108.03 273.00 107.98 C 279.87 107.65 286.52 109.86 292.77 112.48 C 290.78 115.67 288.87 118.90 286.97 122.14 C 282.26 120.27 277.38 117.23 272.13 118.26 C 269.88 118.47 269.72 121.73 271.97 122.08 C 278.16 124.50 285.33 124.98 290.60 129.41 C 294.26 132.41 294.43 137.83 293.02 142.00 C 290.88 147.62 284.74 150.50 279.06 150.93 C 270.55 151.49 261.96 149.75 254.14 146.43 C 256.08 143.00 258.04 139.59 259.95 136.14 C 264.99 138.61 270.34 141.06 276.07 141.00 C 277.67 141.14 278.79 139.85 279.99 139.03 C 274.19 134.22 265.61 135.15 259.77 130.28 C 255.58 127.16 255.58 120.97 257.70 116.64 Z" />
<path fill="#00c2cb" opacity="1.00" d=" M 299.92 117.01 C 308.48 104.47 330.26 104.83 338.25 117.80 C 341.30 122.57 341.70 128.42 341.20 133.93 C 331.46 134.14 321.71 133.85 311.97 134.09 C 312.63 136.18 313.55 138.49 315.85 139.22 C 319.79 141.21 324.43 139.26 326.98 135.98 C 331.17 137.12 335.35 138.32 339.55 139.47 C 336.59 144.50 331.97 148.73 326.21 150.17 C 318.21 152.13 308.84 151.14 302.62 145.31 C 294.88 138.24 294.25 125.52 299.92 117.01 M 311.53 124.87 C 316.19 125.06 320.85 125.06 325.51 124.89 C 324.51 121.59 321.70 118.52 317.95 118.99 C 314.61 119.11 312.65 122.08 311.53 124.87 Z" />
<path fill="#00c2cb" opacity="1.00" d=" M 353.01 109.99 C 362.08 105.75 372.50 108.76 381.22 112.47 C 379.29 115.73 377.39 119.00 375.30 122.17 C 370.07 120.00 363.28 115.49 358.08 119.95 C 360.41 123.05 364.50 123.26 367.92 124.32 C 371.95 125.49 376.16 126.80 379.38 129.64 C 383.72 133.76 383.06 141.13 379.46 145.52 C 376.61 148.73 372.34 150.39 368.15 150.87 C 359.50 151.63 350.80 149.76 342.79 146.57 C 344.48 142.98 346.52 139.58 348.49 136.15 C 353.36 138.57 358.53 140.88 364.06 141.02 C 365.44 140.90 367.78 140.90 367.76 139.00 C 367.43 137.13 365.20 136.91 363.75 136.28 C 357.81 134.33 350.78 133.52 346.50 128.48 C 342.28 122.05 346.33 112.94 353.01 109.99 Z" />
</g>
</svg>
