<?xml version="1.0" encoding="UTF-8" ?>
<!DOCTYPE svg PUBLIC "-//W3C//DTD SVG 1.1//EN" "http://www.w3.org/Graphics/SVG/1.1/DTD/svg11.dtd">
<svg width="484pt" height="96pt" viewBox="0 0 484 96" version="1.1" xmlns="http://www.w3.org/2000/svg">
<g id="#ffffffff">
</g>
<g id="#00c2cbff">
<path fill="#00c2cb" opacity="1.00" d=" M 232.80 15.06 C 237.81 14.96 242.83 15.01 247.85 15.00 C 247.85 19.25 247.85 23.50 247.84 27.75 C 242.80 27.68 237.75 27.93 232.71 27.57 C 232.87 23.40 232.80 19.23 232.80 15.06 Z" />
<path fill="#00c2cb" opacity="1.00" d=" M 350.36 15.01 C 355.39 14.99 360.43 15.00 365.47 15.00 C 365.47 19.25 365.48 23.50 365.45 27.75 C 360.42 27.75 355.40 27.76 350.37 27.74 C 350.36 23.49 350.36 19.25 350.36 15.01 Z" />
<path fill="#00c2cb" opacity="1.00" d=" M 388.01 25.99 C 389.24 22.32 390.55 18.68 391.83 15.03 C 396.34 14.98 400.85 14.97 405.36 15.07 C 402.68 19.51 400.21 24.07 397.53 28.51 C 394.34 27.74 391.16 26.90 388.01 25.99 Z" />
<path fill="#00c2cb" opacity="1.00" d=" M 12.23 16.01 C 19.81 16.00 27.39 15.99 34.98 16.00 C 43.96 15.94 53.07 20.51 57.65 28.37 C 63.81 39.41 63.08 54.77 54.17 64.14 C 48.97 69.46 41.41 72.16 34.03 72.02 C 26.76 71.98 19.49 72.01 12.23 71.99 C 12.23 53.33 12.23 34.67 12.23 16.01 M 27.64 29.01 C 27.63 39.00 27.63 48.99 27.64 58.99 C 31.59 58.95 35.87 59.58 39.43 57.44 C 44.19 54.88 45.94 49.06 45.83 43.98 C 45.99 38.87 44.19 33.06 39.40 30.54 C 35.84 28.44 31.57 29.05 27.64 29.01 Z" />
<path fill="#00c2cb" opacity="1.00" d=" M 68.63 38.69 C 77.41 26.39 99.12 26.95 106.90 40.06 C 109.90 44.80 110.12 50.58 109.57 56.01 C 99.88 56.01 90.19 55.97 80.51 56.03 C 81.42 63.32 92.00 63.72 95.32 58.00 C 99.60 59.05 103.83 60.31 108.08 61.51 C 104.92 66.89 99.79 71.22 93.58 72.46 C 85.76 74.01 76.79 72.86 70.88 67.07 C 63.23 59.86 62.78 47.14 68.63 38.69 M 84.50 41.49 C 82.01 42.22 81.01 44.74 80.19 46.94 C 84.74 47.03 89.29 47.02 93.83 46.96 C 93.28 42.68 88.53 39.65 84.50 41.49 Z" />
<path fill="#00c2cb" opacity="1.00" d=" M 114.09 40.06 C 116.24 33.96 122.68 30.35 128.91 30.03 C 136.14 29.45 143.20 31.70 149.77 34.49 C 147.78 37.67 145.87 40.90 143.97 44.14 C 139.27 42.28 134.40 39.24 129.17 40.26 C 126.96 40.41 126.64 43.66 128.89 44.05 C 135.09 46.48 142.28 46.95 147.57 51.39 C 151.23 54.37 151.43 59.77 150.04 63.94 C 147.94 69.58 141.79 72.48 136.11 72.91 C 127.59 73.49 118.96 71.78 111.14 68.41 C 113.08 64.98 115.06 61.57 116.96 58.12 C 121.97 60.64 127.33 63.03 133.05 63.01 C 134.66 63.18 135.77 61.98 136.86 61.02 C 134.36 58.23 130.48 57.91 127.13 56.83 C 123.10 55.57 118.77 54.40 115.72 51.32 C 112.85 48.37 112.88 43.74 114.09 40.06 Z" />
<path fill="#00c2cb" opacity="1.00" d=" M 156.57 39.58 C 165.13 26.03 188.91 26.59 196.08 41.26 C 191.29 42.67 186.61 44.42 181.80 45.74 C 179.64 43.86 177.12 41.92 174.04 42.85 C 166.96 45.08 166.69 56.83 173.23 59.91 C 176.30 61.06 179.55 59.85 181.61 57.44 C 186.43 58.77 191.19 60.34 196.00 61.72 C 188.98 76.45 165.08 76.95 156.57 63.41 C 152.02 56.37 152.02 46.62 156.57 39.58 Z" />
<path fill="#00c2cb" opacity="1.00" d=" M 214.31 37.96 C 216.91 32.67 222.69 29.19 228.63 29.96 C 228.64 34.26 228.62 38.56 228.66 42.87 C 224.19 43.39 218.39 43.29 215.57 47.36 C 215.30 55.56 215.57 63.79 215.47 72.00 C 210.43 72.00 205.39 72.01 200.36 71.99 C 200.37 58.33 200.37 44.67 200.36 31.01 C 205.02 30.99 209.68 30.98 214.35 31.03 C 214.36 33.34 214.37 35.65 214.31 37.96 Z" />
<path fill="#00c2cb" opacity="1.00" d=" M 268.30 36.61 C 273.81 27.87 287.18 28.05 294.08 34.96 C 300.53 41.36 301.97 51.59 299.13 60.00 C 297.46 65.35 293.60 70.21 288.24 72.16 C 281.88 74.40 273.76 72.67 270.10 66.64 C 270.31 74.07 270.13 81.51 270.20 88.94 C 265.18 89.05 260.16 88.99 255.15 89.00 C 255.15 69.67 255.15 50.34 255.15 31.01 C 259.55 30.99 263.96 30.98 268.36 31.03 C 268.35 32.89 268.34 34.75 268.30 36.61 M 274.21 43.22 C 272.62 44.13 270.95 45.36 270.31 47.13 C 270.08 50.67 269.42 54.94 272.37 57.59 C 274.51 60.52 279.13 61.30 281.92 58.87 C 285.63 55.42 286.31 48.99 282.99 45.05 C 280.87 42.57 277.14 42.18 274.21 43.22 Z" />
<path fill="#00c2cb" opacity="1.00" d=" M 306.58 39.56 C 315.16 26.03 338.92 26.60 346.08 41.26 C 341.27 42.76 336.48 44.30 331.69 45.85 C 329.66 43.36 326.38 41.83 323.22 43.10 C 316.95 46.13 316.95 56.89 323.23 59.91 C 326.30 61.06 329.55 59.85 331.61 57.44 C 336.48 58.81 341.32 60.30 346.13 61.85 C 339.58 74.58 320.72 76.63 310.26 67.72 C 302.35 60.92 300.95 48.19 306.58 39.56 Z" />
<path fill="#00c2cb" opacity="1.00" d=" M 388.24 30.25 C 395.12 29.28 402.68 30.32 408.13 34.95 C 417.86 42.78 418.07 59.47 408.63 67.62 C 397.77 77.19 377.12 74.20 371.88 59.86 C 369.31 53.34 369.93 45.62 373.60 39.64 C 376.78 34.54 382.37 31.23 388.24 30.25 M 390.21 43.12 C 385.11 45.73 384.58 53.14 387.47 57.58 C 389.89 61.32 396.12 61.22 398.52 57.50 C 400.66 53.92 400.67 49.08 398.52 45.50 C 396.76 42.77 393.13 42.13 390.21 43.12 Z" />
<path fill="#00c2cb" opacity="1.00" d=" M 433.79 36.75 C 437.56 31.78 443.96 29.56 450.06 29.97 C 453.93 29.82 457.87 31.75 459.82 35.16 C 461.66 38.09 461.87 41.65 461.86 45.02 C 461.85 54.01 461.85 63.00 461.85 72.00 C 456.83 71.99 451.81 72.05 446.80 71.94 C 446.76 63.96 446.90 55.98 446.76 48.00 C 447.01 45.38 444.71 42.94 442.06 43.18 C 438.63 44.10 435.29 47.21 435.46 50.98 C 435.46 57.99 435.48 64.99 435.47 72.00 C 430.43 72.00 425.39 72.01 420.36 71.99 C 420.37 58.33 420.37 44.67 420.36 31.01 C 424.86 30.99 429.36 31.00 433.87 31.01 C 433.85 32.92 433.82 34.84 433.79 36.75 Z" />
<path fill="#00c2cb" opacity="1.00" d=" M 232.80 31.06 C 237.87 30.98 242.94 30.92 248.01 31.11 C 247.64 44.73 247.95 58.37 247.85 72.00 C 242.83 71.99 237.82 72.04 232.80 71.94 C 232.81 58.31 232.81 44.69 232.80 31.06 Z" />
<path fill="#00c2cb" opacity="1.00" d=" M 350.36 31.01 C 355.39 30.99 360.43 31.00 365.47 31.00 C 365.47 44.67 365.47 58.33 365.47 72.00 C 360.43 72.00 355.39 72.01 350.36 71.99 C 350.37 58.33 350.37 44.67 350.36 31.01 Z" />
</g>
</svg>
